<?xml version="1.0" encoding="UTF-8" standalone="no"?>
<svg
   xmlns:dc="http://purl.org/dc/elements/1.1/"
   xmlns:cc="http://creativecommons.org/ns#"
   xmlns:rdf="http://www.w3.org/1999/02/22-rdf-syntax-ns#"
   xmlns:svg="http://www.w3.org/2000/svg"
   xmlns="http://www.w3.org/2000/svg"
   xmlns:sodipodi="http://sodipodi.sourceforge.net/DTD/sodipodi-0.dtd"
   xmlns:inkscape="http://www.inkscape.org/namespaces/inkscape"
   width="32"
   height="32"
   id="svg3211"
   version="1.1"
   inkscape:version="0.48.5 r10040"
   sodipodi:docname="bplog.svg">
  <defs
     id="defs3213" />
  <sodipodi:namedview
     id="base"
     pagecolor="#ffffff"
     bordercolor="#666666"
     borderopacity="1.0"
     inkscape:pageopacity="0.0"
     inkscape:pageshadow="2"
     inkscape:zoom="16.749592"
     inkscape:cx="0.65546912"
     inkscape:cy="12.522223"
     inkscape:document-units="px"
     inkscape:current-layer="svg3211"
     showgrid="false"
     inkscape:window-width="1680"
     inkscape:window-height="997"
     inkscape:window-x="0"
     inkscape:window-y="0"
     inkscape:window-maximized="1"
     gridtolerance="10">
    <inkscape:grid
       type="xygrid"
       id="grid3228"
       empspacing="5"
       visible="true"
       enabled="true"
       snapvisiblegridlinesonly="true" />
  </sodipodi:namedview>
  <metadata
     id="metadata3216">
    <rdf:RDF>
      <cc:Work
         rdf:about="">
        <dc:format>image/svg+xml</dc:format>
        <dc:type
           rdf:resource="http://purl.org/dc/dcmitype/StillImage" />
        <dc:title />
      </cc:Work>
    </rdf:RDF>
  </metadata>
  <path
     style="fill:#ffffff;fill-opacity:1;"
     d="M 9.40625 0.8125 C 7.1410612 0.811975 4.8844968 1.75245 3.15625 3.625 C -0.2554523 7.3176 -0.2920274 13.2489 3.03125 17 L 3.15625 17.15625 L 3.5 17.53125 L 3.46875 17.5625 L 15.96875 31.09375 L 16 31.0625 L 28.5 17.53125 C 28.608523 17.42455 28.708107 17.3003 28.8125 17.1875 C 32.269002 13.4465 32.300587 7.39715 28.84375 3.65625 C 25.432038 -0.03635 19.903424 -0.06555 16.4375 3.53125 L 16.3125 3.65625 L 16 4 C 15.8927 3.8703 15.771257 3.7495 15.65625 3.625 C 13.928003 1.75455 11.671439 0.813025 9.40625 0.8125 z M 9.65625 6.53125 C 9.7483 6.53479 9.824382 6.563767 9.875 6.625 C 9.91038 6.667769 10.059919 8.0362346 10.28125 10.34375 C 10.474144 12.354794 10.65246 14.056859 10.65625 14.125 C 10.66025 14.19314 10.68199 14.073533 10.71875 13.84375 C 10.80824 13.284348 10.775134 13.294495 11.65625 13.28125 L 12.34375 13.28125 L 12.5625 13.15625 C 13.018688 12.890714 13.509159 12.762387 14.03125 12.8125 C 14.361463 12.84418 14.607633 12.942906 14.90625 13.125 L 15.15625 13.28125 L 16 13.25 L 16.8125 13.25 L 17.125 12.71875 C 17.39201 12.290662 17.483524 12.221523 17.59375 12.1875 C 17.702265 12.15404 17.735241 12.15394 17.84375 12.1875 C 17.957548 12.22267 18.016808 12.290247 18.25 12.71875 C 18.48461 13.149856 18.548207 13.224763 18.65625 13.25 C 18.72453 13.26595 18.770671 13.25739 18.78125 13.25 C 18.79182 13.2426 18.969938 11.791961 19.15625 10.03125 C 19.391262 7.810335 19.489965 6.8134659 19.53125 6.78125 C 19.687305 6.659498 20.063709 6.705255 20.125 6.84375 C 20.13827 6.873764 20.292874 8.449985 20.46875 10.375 C 20.644631 12.300015 20.797871 13.911945 20.8125 13.9375 C 20.82715 13.96306 20.85242 13.848856 20.875 13.6875 C 20.9082 13.450211 20.945499 13.37186 21.03125 13.3125 C 21.137106 13.23923 21.131607 13.25927 21.90625 13.28125 L 22.6875 13.28125 L 22.9375 13.15625 C 23.071361 13.07832 23.287747 12.953868 23.4375 12.90625 C 23.667923 12.83298 23.769902 12.84299 24.09375 12.84375 C 24.418307 12.84475 24.531622 12.86381 24.75 12.9375 C 24.891609 12.98528 25.097277 13.08286 25.21875 13.15625 L 25.4375 13.28125 L 27 13.25 C 28.541511 13.23355 28.574717 13.25517 28.6875 13.1875 C 29.04106 12.975321 29.625 13.147116 29.625 13.46875 C 29.625 13.584732 29.60514 13.630428 29.46875 13.71875 C 29.332356 13.80707 29.272871 13.8125 29.09375 13.8125 C 28.947477 13.8125 28.83975 13.79569 28.75 13.75 C 28.619446 13.6835 28.618582 13.66584 26.90625 13.6875 L 25.1875 13.71875 L 24.875 13.53125 C 24.269058 13.154474 23.887922 13.154192 23.28125 13.53125 L 22.96875 13.71875 L 22.25 13.71875 C 21.630905 13.70736 21.53125 13.70964 21.53125 13.75 C 21.53125 13.891694 21.093309 16.985106 21.0625 17.0625 C 20.99103 17.242023 20.628876 17.312031 20.5 17.15625 C 20.46295 17.11145 20.301503 15.869907 20.09375 13.6875 C 19.91699 11.830627 19.784053 10.340927 19.78125 10.375 C 19.77845 10.40906 19.699892 11.276156 19.59375 12.28125 L 19.375 14.09375 L 19.28125 14.1875 C 19.018834 14.33887 18.784609 14.214189 18.65625 13.875 L 18.5625 13.65625 L 18.375 13.65625 C 18.10753 13.65625 18.015277 13.589515 17.84375 13.28125 L 17.6875 13 L 17.5 13.3125 C 17.39276 13.487948 17.275176 13.60228 17.21875 13.625 C 17.15179 13.65198 16.7655 13.67373 16 13.6875 L 14.90625 13.71875 L 14.625 13.53125 C 14.300406 13.318831 14.083152 13.25 13.78125 13.25 C 13.468343 13.25 13.26401 13.315739 12.90625 13.53125 L 12.59375 13.71875 L 12 13.71875 C 11.552335 13.71875 11.405888 13.72108 11.40625 13.75 C 11.406491 13.77131 11.289818 14.534616 11.15625 15.4375 C 10.955941 16.791538 10.914058 17.09238 10.84375 17.15625 C 10.72577 17.26343 10.512687 17.282421 10.375 17.1875 C 10.271282 17.11602 10.249919 17.041863 9.96875 14.09375 C 9.81045 12.433902 9.675497 10.928875 9.65625 10.75 C 9.62523 10.461798 9.577955 10.613044 9.4375 12.21875 C 9.35035 13.215331 9.277139 14.079255 9.25 14.125 C 9.16713 14.264684 8.8324981 14.305658 8.6875 14.1875 C 8.659011 14.16432 8.5895131 14.05249 8.53125 13.9375 L 8.4375 13.71875 L 8.21875 13.71875 C 8.0943773 13.71875 7.9514638 13.70891 7.90625 13.6875 C 7.861049 13.66609 7.7623855 13.525795 7.6875 13.375 C 7.612615 13.224211 7.5441904 13.110377 7.53125 13.125 C 7.518327 13.13963 7.4465533 13.265523 7.375 13.40625 C 7.296806 13.560026 7.2093958 13.669087 7.15625 13.6875 C 7.101685 13.70643 6.2363728 13.71875 4.90625 13.71875 C 2.8143891 13.71875 2.7490844 13.71627 2.65625 13.65625 C 2.5356797 13.57817 2.5385337 13.46938 2.65625 13.375 L 2.75 13.3125 L 4.75 13.28125 L 6.71875 13.28125 L 7 12.75 C 7.2522318 12.260005 7.2941733 12.231454 7.4375 12.1875 C 7.5801145 12.14377 7.5970998 12.12869 7.71875 12.1875 C 7.8265639 12.23962 7.8927515 12.331254 8.09375 12.75 L 8.3125 13.28125 L 8.5 13.28125 L 8.65625 13.28125 L 8.6875 13.0625 C 8.7035279 12.937979 8.8559787 11.496198 9 9.84375 C 9.144022 8.1913019 9.261331 6.7778167 9.28125 6.71875 C 9.321915 6.5982177 9.50282 6.5252724 9.65625 6.53125 z "
     id="path2989" />
</svg>
